<svg width="82" height="23" viewBox="0 0 82 23" fill="none" xmlns="http://www.w3.org/2000/svg">
<path d="M0.0400001 22V0.699999H4.96V17.68H15.28V22H0.0400001ZM26.538 22.18C24.958 22.18 23.518 21.88 22.218 21.28C20.938 20.66 19.828 19.84 18.888 18.82C17.948 17.78 17.228 16.62 16.728 15.34C16.228 14.04 15.978 12.7 15.978 11.32C15.978 9.92 16.238 8.58 16.758 7.3C17.298 6 18.038 4.85 18.978 3.85C19.938 2.83 21.068 2.03 22.368 1.45C23.668 0.869998 25.088 0.579999 26.628 0.579999C28.208 0.579999 29.638 0.889999 30.918 1.51C32.218 2.11 33.328 2.93 34.248 3.97C35.188 5.01 35.908 6.18 36.408 7.48C36.908 8.76 37.158 10.07 37.158 11.41C37.158 12.81 36.888 14.16 36.348 15.46C35.828 16.74 35.088 17.89 34.128 18.91C33.188 19.91 32.068 20.71 30.768 21.31C29.488 21.89 28.078 22.18 26.538 22.18ZM20.988 11.38C20.988 12.48 21.198 13.52 21.618 14.5C22.038 15.46 22.668 16.25 23.508 16.87C24.348 17.49 25.368 17.8 26.568 17.8C27.808 17.8 28.838 17.48 29.658 16.84C30.498 16.2 31.118 15.39 31.518 14.41C31.938 13.41 32.148 12.38 32.148 11.32C32.148 10.22 31.928 9.19 31.488 8.23C31.068 7.25 30.438 6.46 29.598 5.86C28.778 5.26 27.768 4.96 26.568 4.96C25.328 4.96 24.288 5.28 23.448 5.92C22.628 6.54 22.008 7.34 21.588 8.32C21.188 9.3 20.988 10.32 20.988 11.38ZM49.0309 22.15C47.6309 22.15 46.3109 21.89 45.0709 21.37C43.8509 20.83 42.7609 20.08 41.8009 19.12C40.8609 18.14 40.1209 16.99 39.5809 15.67C39.0609 14.33 38.8009 12.84 38.8009 11.2C38.8009 9.72 39.0609 8.34 39.5809 7.06C40.1209 5.78 40.8709 4.65 41.8309 3.67C42.8109 2.69 43.9409 1.93 45.2209 1.39C46.5209 0.829999 47.9209 0.549999 49.4209 0.549999C51.3809 0.549999 53.1009 0.969999 54.5809 1.81C56.0809 2.65 57.2009 3.78 57.9409 5.2L54.2809 7.96C53.8009 7.02 53.1009 6.28 52.1809 5.74C51.2609 5.2 50.2809 4.93 49.2409 4.93C48.1609 4.93 47.2109 5.22 46.3909 5.8C45.5709 6.36 44.9309 7.13 44.4709 8.11C44.0109 9.09 43.7809 10.18 43.7809 11.38C43.7809 12.6 44.0209 13.7 44.5009 14.68C44.9809 15.64 45.6409 16.4 46.4809 16.96C47.3409 17.5 48.3309 17.77 49.4509 17.77C51.3709 17.77 53.1009 16.89 54.6409 15.13V14.44H50.5009V10.87H58.7209V22H54.6409V19.9C53.0209 21.4 51.1509 22.15 49.0309 22.15ZM71.3036 22.18C69.7236 22.18 68.2836 21.88 66.9836 21.28C65.7036 20.66 64.5936 19.84 63.6536 18.82C62.7136 17.78 61.9936 16.62 61.4936 15.34C60.9936 14.04 60.7436 12.7 60.7436 11.32C60.7436 9.92 61.0036 8.58 61.5236 7.3C62.0636 6 62.8036 4.85 63.7436 3.85C64.7036 2.83 65.8336 2.03 67.1336 1.45C68.4336 0.869998 69.8536 0.579999 71.3936 0.579999C72.9736 0.579999 74.4036 0.889999 75.6836 1.51C76.9836 2.11 78.0936 2.93 79.0136 3.97C79.9536 5.01 80.6736 6.18 81.1736 7.48C81.6736 8.76 81.9236 10.07 81.9236 11.41C81.9236 12.81 81.6536 14.16 81.1136 15.46C80.5936 16.74 79.8536 17.89 78.8936 18.91C77.9536 19.91 76.8336 20.71 75.5336 21.31C74.2536 21.89 72.8436 22.18 71.3036 22.18ZM65.7536 11.38C65.7536 12.48 65.9636 13.52 66.3836 14.5C66.8036 15.46 67.4336 16.25 68.2736 16.87C69.1136 17.49 70.1336 17.8 71.3336 17.8C72.5736 17.8 73.6036 17.48 74.4236 16.84C75.2636 16.2 75.8836 15.39 76.2836 14.41C76.7036 13.41 76.9136 12.38 76.9136 11.32C76.9136 10.22 76.6936 9.19 76.2536 8.23C75.8336 7.25 75.2036 6.46 74.3636 5.86C73.5436 5.26 72.5336 4.96 71.3336 4.96C70.0936 4.96 69.0536 5.28 68.2136 5.92C67.3936 6.54 66.7736 7.34 66.3536 8.32C65.9536 9.3 65.7536 10.32 65.7536 11.38Z" fill="#F26E11"/>
</svg>
